<?xml version="1.0" encoding="UTF-8"?>
<svg id="Capa_1" xmlns="http://www.w3.org/2000/svg" version="1.1" viewBox="0 0 566.93 283.46">
  <!-- Generator: Adobe Illustrator 29.8.6, SVG Export Plug-In . SVG Version: 2.1.1 Build 1)  -->
  <defs>
    <style>
      .st0 {
        fill: #fff;
      }
    </style>
  </defs>
  <g>
    <path class="st0" d="M185.18,113.71c-4.33,0-8.26-.95-11.78-2.86-3.52-1.91-6.3-4.53-8.32-7.88-2.02-3.35-3.03-7.1-3.03-11.26s1.02-7.98,3.08-11.3c2.05-3.32,4.84-5.94,8.36-7.84,3.52-1.91,7.48-2.86,11.87-2.86,3.29,0,6.31.56,9.05,1.69,2.74,1.13,5.18,2.82,7.32,5.07l-8.49,8.49c-.98-1.1-2.12-1.91-3.42-2.42-1.3-.52-2.79-.78-4.46-.78-1.91,0-3.6.42-5.07,1.26-1.47.84-2.63,1.99-3.47,3.46-.84,1.47-1.26,3.19-1.26,5.16s.42,3.7,1.26,5.2c.84,1.5,2.01,2.69,3.51,3.55,1.5.87,3.18,1.3,5.02,1.3,1.73,0,3.28-.3,4.63-.91,1.36-.61,2.53-1.46,3.51-2.56l8.4,8.49c-2.2,2.31-4.68,4.06-7.45,5.24-2.77,1.18-5.86,1.78-9.27,1.78Z"/>
    <path class="st0" d="M235.17,113.71c-3.87,0-7.29-.8-10.27-2.38-2.97-1.59-5.3-3.78-6.97-6.58-1.68-2.8-2.51-6.02-2.51-9.66v-24.43h13.26v24.26c0,1.44.24,2.68.74,3.73.49,1.04,1.23,1.85,2.21,2.42.98.58,2.17.87,3.55.87,1.96,0,3.52-.62,4.68-1.86,1.15-1.24,1.73-2.96,1.73-5.15v-24.26h13.25v24.34c0,3.7-.84,6.95-2.51,9.75-1.68,2.8-3.99,5-6.93,6.58-2.95,1.59-6.35,2.38-10.22,2.38Z"/>
    <path class="st0" d="M271.81,112.76v-42.1h13.25v42.1h-13.25ZM285.07,89.63l-5.54-4.33c1.1-4.91,2.95-8.72,5.54-11.44,2.6-2.71,6.21-4.07,10.83-4.07,2.02,0,3.8.3,5.33.91,1.53.61,2.87,1.55,4.03,2.81l-7.88,9.96c-.58-.64-1.3-1.13-2.17-1.47-.87-.35-1.85-.52-2.95-.52-2.2,0-3.94.68-5.24,2.04s-1.95,3.39-1.95,6.11Z"/>
    <path class="st0" d="M317.12,112.76v-42.1h13.25v42.1h-13.25ZM330.37,89.63l-5.54-4.33c1.1-4.91,2.95-8.72,5.54-11.44,2.6-2.71,6.21-4.07,10.83-4.07,2.02,0,3.8.3,5.33.91,1.53.61,2.87,1.55,4.03,2.81l-7.88,9.96c-.58-.64-1.3-1.13-2.17-1.47-.87-.35-1.85-.52-2.95-.52-2.2,0-3.94.68-5.24,2.04-1.3,1.36-1.95,3.39-1.95,6.11Z"/>
    <path class="st0" d="M381.84,113.71c-4.33,0-8.25-.97-11.74-2.9-3.5-1.93-6.25-4.58-8.27-7.93-2.02-3.35-3.03-7.1-3.03-11.26s1.01-7.89,3.03-11.18c2.02-3.29,4.77-5.9,8.23-7.84,3.47-1.93,7.39-2.9,11.78-2.9s8.32.95,11.78,2.86c3.46,1.91,6.21,4.52,8.23,7.84,2.02,3.32,3.03,7.06,3.03,11.22s-1.01,7.91-3.03,11.26c-2.02,3.35-4.77,5.99-8.23,7.93-3.47,1.94-7.39,2.9-11.78,2.9ZM381.84,101.67c1.91,0,3.58-.42,5.02-1.26,1.44-.84,2.56-2.02,3.34-3.55.78-1.53,1.17-3.28,1.17-5.24s-.4-3.68-1.21-5.16c-.81-1.47-1.92-2.63-3.33-3.46-1.42-.84-3.08-1.26-4.98-1.26s-3.5.42-4.94,1.26c-1.44.84-2.57,2.01-3.38,3.51-.81,1.5-1.21,3.23-1.21,5.2s.4,3.63,1.21,5.16c.81,1.53,1.93,2.72,3.38,3.55,1.44.84,3.09,1.26,4.94,1.26Z"/>
  </g>
  <g>
    <path class="st0" d="M317.34,190.1c-3.93,0-7.47-.94-10.61-2.82-3.15-1.87-5.65-4.42-7.49-7.62-1.85-3.2-2.77-6.77-2.77-10.7s.92-7.47,2.77-10.61c1.85-3.15,4.35-5.64,7.49-7.49,3.15-1.85,6.68-2.77,10.61-2.77s7.38.93,10.53,2.77c3.15,1.85,5.64,4.35,7.49,7.49,1.85,3.15,2.77,6.69,2.77,10.61s-.92,7.57-2.77,10.74c-1.85,3.18-4.35,5.7-7.49,7.58-3.15,1.88-6.66,2.82-10.53,2.82ZM317.34,185.95c3.06,0,5.82-.75,8.27-2.25,2.45-1.5,4.39-3.54,5.8-6.11,1.41-2.57,2.12-5.47,2.12-8.71s-.71-6.01-2.12-8.49c-1.42-2.48-3.35-4.46-5.8-5.94-2.46-1.47-5.21-2.21-8.27-2.21s-5.91.73-8.36,2.21c-2.46,1.47-4.4,3.45-5.85,5.94s-2.17,5.34-2.17,8.58.72,6.12,2.17,8.66c1.44,2.54,3.39,4.56,5.85,6.07,2.45,1.5,5.24,2.25,8.36,2.25Z"/>
    <path class="st0" d="M331.96,200.08c-.18.39-.34.79-.55,1.17-1.42,2.57-3.35,4.61-5.8,6.11-2.46,1.5-5.21,2.25-8.27,2.25s-5.91-.75-8.36-2.25c-2.46-1.5-4.4-3.52-5.85-6.07-.22-.39-.4-.81-.58-1.21h-4.79c.41,1.12.87,2.21,1.47,3.25,1.85,3.21,4.35,5.75,7.49,7.62,3.15,1.88,6.68,2.82,10.61,2.82s7.38-.94,10.53-2.82c3.15-1.87,5.64-4.4,7.49-7.58.61-1.05,1.08-2.16,1.49-3.29h-4.89Z"/>
    <path class="st0" d="M70.87,188.18v-40.29h4.42v40.29h-4.42ZM75.28,164.1l-2.17-.78c0-5.14,1.3-9.14,3.9-12,2.6-2.86,6.01-4.29,10.22-4.29,1.96,0,3.8.35,5.5,1.04,1.7.69,3.28,1.82,4.72,3.38l-2.95,3.12c-1.1-1.21-2.28-2.08-3.55-2.6-1.27-.52-2.77-.78-4.5-.78-3.29,0-5.98,1.11-8.06,3.33-2.08,2.22-3.12,5.42-3.12,9.57Z"/>
    <path class="st0" d="M130.12,189.05c-3.93,0-7.47-.94-10.61-2.82-3.15-1.87-5.65-4.42-7.49-7.62-1.85-3.2-2.77-6.77-2.77-10.7s.92-7.47,2.77-10.61c1.85-3.15,4.35-5.64,7.49-7.49,3.15-1.85,6.68-2.77,10.61-2.77s7.38.93,10.53,2.77c3.15,1.85,5.64,4.35,7.49,7.49,1.85,3.15,2.77,6.69,2.77,10.61s-.92,7.57-2.77,10.74c-1.85,3.18-4.35,5.7-7.49,7.58-3.15,1.88-6.66,2.82-10.53,2.82ZM130.12,184.89c3.06,0,5.82-.75,8.27-2.25,2.45-1.5,4.39-3.54,5.8-6.11,1.41-2.57,2.12-5.47,2.12-8.71s-.71-6.01-2.12-8.49c-1.42-2.48-3.35-4.46-5.8-5.94-2.46-1.47-5.21-2.21-8.27-2.21s-5.91.73-8.36,2.21c-2.46,1.47-4.4,3.45-5.85,5.94s-2.17,5.34-2.17,8.58.72,6.12,2.17,8.66c1.44,2.54,3.39,4.56,5.85,6.07,2.45,1.5,5.24,2.25,8.36,2.25Z"/>
    <path class="st0" d="M187.82,189.05c-3.93,0-7.47-.94-10.61-2.82-3.15-1.87-5.65-4.42-7.49-7.62-1.85-3.2-2.77-6.77-2.77-10.7s.92-7.47,2.77-10.61c1.85-3.15,4.35-5.64,7.49-7.49,3.15-1.85,6.68-2.77,10.61-2.77s7.38.93,10.53,2.77c3.15,1.85,5.64,4.35,7.49,7.49,1.85,3.15,2.77,6.69,2.77,10.61s-.92,7.57-2.77,10.74c-1.85,3.18-4.35,5.7-7.49,7.58-3.15,1.88-6.66,2.82-10.53,2.82ZM187.82,184.89c3.06,0,5.82-.75,8.27-2.25,2.45-1.5,4.39-3.54,5.8-6.11,1.41-2.57,2.12-5.47,2.12-8.71s-.71-6.01-2.12-8.49c-1.42-2.48-3.35-4.46-5.8-5.94-2.46-1.47-5.21-2.21-8.27-2.21s-5.91.73-8.36,2.21c-2.46,1.47-4.4,3.45-5.85,5.94s-2.17,5.34-2.17,8.58.72,6.12,2.17,8.66c1.44,2.54,3.39,4.56,5.85,6.07,2.45,1.5,5.24,2.25,8.36,2.25Z"/>
    <path class="st0" d="M229.49,188.18v-40.29h4.42v40.29h-4.42ZM233.91,164.1l-2.17-.78c0-5.14,1.3-9.14,3.9-12,2.6-2.86,6.01-4.29,10.22-4.29,1.96,0,3.8.35,5.5,1.04,1.7.69,3.28,1.82,4.72,3.38l-2.94,3.12c-1.1-1.21-2.28-2.08-3.55-2.6s-2.77-.78-4.5-.78c-3.29,0-5.98,1.11-8.06,3.33-2.08,2.22-3.12,5.42-3.12,9.57Z"/>
    <path class="st0" d="M273.5,188.18v-31.47c0-1.64.69-3.21,1.9-4.33l2.61-2.41v38.21h-4.5Z"/>
    <path class="st0" d="M273.5,145.82v-10.65h4.5v3.91c0,1.64-.69,3.21-1.9,4.33l-2.61,2.41Z"/>
    <path class="st0" d="M205.27,148.07c-1.21-1.12-1.9-2.68-1.9-4.33v-16.38h4.5v23.11s-2.61-2.41-2.61-2.41Z"/>
    <path class="st0" d="M374.86,189.05c-3.23,0-6.12-.75-8.66-2.25-2.54-1.5-4.52-3.58-5.94-6.24-1.41-2.66-2.12-5.72-2.12-9.18v-23.48h4.42v23.31c0,2.72.51,5.1,1.52,7.15,1.01,2.05,2.44,3.65,4.29,4.81,1.85,1.15,4.01,1.73,6.5,1.73,3.7,0,6.66-1.26,8.88-3.77,2.22-2.51,3.33-5.82,3.33-9.92v-23.31h4.42v23.48c0,3.47-.71,6.53-2.12,9.18-1.42,2.66-3.38,4.74-5.89,6.24-2.51,1.5-5.39,2.25-8.62,2.25Z"/>
    <path class="st0" d="M430.74,189.05c-3.99,0-7.58-.92-10.79-2.77-3.2-1.85-5.73-4.36-7.58-7.54-1.85-3.18-2.77-6.76-2.77-10.74s.89-7.55,2.69-10.7c1.79-3.15,4.26-5.64,7.41-7.49,3.15-1.85,6.66-2.77,10.53-2.77s6.95.82,9.75,2.47c2.8,1.65,4.99,3.91,6.58,6.8,1.59,2.89,2.38,6.21,2.38,9.96,0,.35-.03.8-.09,1.34-.06.55-.15,1.23-.26,2.04h-35.87v-3.81h33.36l-1.47,1.21c.11-3.18-.41-5.96-1.56-8.36-1.15-2.4-2.83-4.26-5.02-5.59-2.2-1.33-4.82-1.99-7.88-1.99s-5.98.71-8.4,2.12c-2.42,1.42-4.32,3.36-5.67,5.85-1.36,2.48-2.04,5.37-2.04,8.66,0,3.47.71,6.49,2.12,9.05,1.41,2.57,3.39,4.56,5.93,5.98,2.54,1.41,5.52,2.12,8.92,2.12,2.6,0,5.01-.48,7.23-1.43,2.22-.95,4.08-2.38,5.59-4.29l2.94,2.86c-1.85,2.2-4.17,3.91-6.97,5.15-2.8,1.24-5.82,1.86-9.05,1.86Z"/>
    <path class="st0" d="M464.01,185.76l26.86-35.43h5.2l-26.86,35.43h-5.2ZM464.01,188.18v-2.42l3.47-1.47h28.15v3.9h-31.62ZM465.39,151.79v-3.9h30.67v2.43l-4.16,1.47h-26.51Z"/>
  </g>
</svg>