<?xml version="1.0" encoding="UTF-8"?>
<svg id="Capa_1" xmlns="http://www.w3.org/2000/svg" version="1.1" viewBox="0 0 566.93 212.6">
  <!-- Generator: Adobe Illustrator 29.8.6, SVG Export Plug-In . SVG Version: 2.1.1 Build 1)  -->
  <defs>
    <style>
      .st0 {
        fill: #fff;
      }
    </style>
  </defs>
  <g>
    <path class="st0" d="M462.74,75.93v9.64c-.08,0-.16,0-.24,0-3.17,0-6.2,2.12-7.31,5.08-1.9,5.07,1.55,10.49,6.95,10.86,1.33.09,2.68.12,4.04.12,3.35,0,6.78-.2,10.13-.2,1.05,0,2.09.02,3.11.07,10.31.5,17.96,10,16.44,20.2-1.21,8.14-8.32,14.67-16.6,14.88-.19,0-.38.06-.58.06-.11,0-.22-.01-.34-.06v-9.56c.06,0,.11,0,.17,0,6.2,0,10.05-6.83,6.72-12.19-1.36-2.2-3.79-3.58-6.37-3.75-1.28-.09-2.58-.12-3.89-.12-3.37,0-6.82.2-10.19.2-1.14,0-2.26-.02-3.37-.08-15.47-.85-22.12-20.67-10.27-30.85,3.24-2.79,7.3-4.26,11.59-4.31M462.74,74.65h-.01c-4.67.05-8.96,1.65-12.42,4.62-5.91,5.08-8,12.9-5.46,20.4,2.52,7.42,8.84,12.29,16.5,12.71,1.05.06,2.18.09,3.44.09,1.7,0,3.45-.05,5.13-.1,1.67-.05,3.39-.1,5.06-.1,1.42,0,2.66.04,3.8.11,2.19.15,4.24,1.35,5.36,3.15,1.31,2.11,1.38,4.65.18,6.8-1.19,2.14-3.36,3.42-5.81,3.42h-.14s-.02,0-.03,0c-.34,0-.66.13-.9.37-.25.24-.39.57-.39.92v9.56c0,.55.35,1.03.86,1.21.25.09.5.13.76.13.2,0,.36-.02.49-.04.04,0,.08-.01.13-.02,8.85-.22,16.52-7.09,17.84-15.97.78-5.27-.72-10.67-4.13-14.82-3.36-4.1-8.29-6.6-13.52-6.85-.98-.05-2.01-.07-3.18-.07-1.69,0-3.43.05-5.11.1-1.66.05-3.37.1-5.03.1-1.48,0-2.77-.04-3.96-.12-2.15-.15-4.05-1.26-5.21-3.06-1.16-1.81-1.39-4.02-.63-6.06.92-2.46,3.49-4.25,6.1-4.25.07,0,.13,0,.2,0,.01,0,.03,0,.04,0,.33,0,.65-.13.89-.36.25-.24.39-.58.39-.93v-9.64c0-.34-.14-.67-.38-.92-.24-.24-.57-.37-.9-.37h0Z"/>
    <path class="st0" d="M478.35,75.95c7.36.02,14.13,4.69,16.65,11.58,1.67,4.56,1.3,9.97-1,14.27-2.25-2.28-5.12-3.96-8.36-4.73,2.48-4.93-1-11.5-7.09-11.5-.07,0-.13,0-.2,0v-9.63M478.35,74.66c-.34,0-.67.14-.91.38-.24.24-.38.57-.38.91v9.63c0,.35.14.68.39.92.24.24.56.37.9.37.01,0,.02,0,.03,0h.17c2.31,0,4.34,1.14,5.57,3.12,1.24,2.01,1.38,4.5.37,6.51-.18.35-.18.76-.02,1.12.17.36.49.62.87.71,2.93.69,5.6,2.21,7.74,4.38.24.25.57.38.92.38.06,0,.12,0,.18-.01.4-.06.76-.31.95-.67,2.48-4.65,2.89-10.37,1.08-15.32-2.71-7.41-9.89-12.41-17.86-12.43h0Z"/>
    <path class="st0" d="M447.24,110.64c2.18,2.26,4.99,3.95,8.33,4.7-2.64,4.97.8,11.68,6.98,11.68.06,0,.13,0,.19,0v9.64c-3.35-.05-6.56-.9-9.39-2.68-7.98-4.98-10.58-15.36-6.11-23.35M447.24,109.36c-.05,0-.11,0-.16.01-.4.05-.76.29-.96.65-4.89,8.71-2.01,19.72,6.55,25.07,2.97,1.85,6.35,2.82,10.06,2.87,0,0,.01,0,.02,0,.34,0,.66-.13.9-.37.25-.24.38-.57.38-.92v-9.64c0-.35-.14-.68-.39-.92-.24-.24-.56-.37-.9-.37,0,0-.02,0-.03,0h-.16c-2.34,0-4.38-1.15-5.59-3.17-1.23-2.05-1.33-4.59-.25-6.61.19-.35.2-.78.03-1.14-.17-.36-.49-.63-.89-.72-2.93-.66-5.58-2.16-7.69-4.34-.24-.25-.58-.39-.93-.39h0Z"/>
  </g>
  <g>
    <g>
      <path class="st0" d="M83.06,116.09c-2.28,0-4.35-.5-6.21-1.51-1.86-1.01-3.32-2.39-4.38-4.16-1.07-1.77-1.6-3.75-1.6-5.94s.54-4.21,1.62-5.96c1.08-1.75,2.55-3.13,4.41-4.13,1.86-1,3.94-1.51,6.26-1.51,1.74,0,3.33.3,4.77.89,1.45.59,2.73,1.48,3.86,2.67l-4.48,4.48c-.52-.58-1.12-1-1.8-1.28-.69-.27-1.47-.41-2.35-.41-1,0-1.9.22-2.67.66-.78.44-1.39,1.05-1.83,1.83-.44.78-.66,1.68-.66,2.72s.22,1.95.66,2.74c.44.79,1.06,1.42,1.85,1.87.79.46,1.67.68,2.65.68.91,0,1.73-.16,2.44-.48.72-.32,1.33-.77,1.85-1.35l4.43,4.48c-1.16,1.22-2.47,2.14-3.93,2.76-1.46.62-3.09.94-4.89.94Z"/>
      <path class="st0" d="M109.41,116.09c-2.04,0-3.84-.42-5.41-1.26-1.57-.84-2.79-1.99-3.68-3.47-.88-1.48-1.32-3.17-1.32-5.09v-12.88h6.99v12.79c0,.76.13,1.42.39,1.96.26.55.65.97,1.16,1.28.52.3,1.14.46,1.87.46,1.03,0,1.86-.33,2.47-.98.61-.65.91-1.56.91-2.72v-12.79h6.99v12.83c0,1.95-.44,3.66-1.32,5.14-.88,1.48-2.1,2.63-3.65,3.47-1.55.84-3.35,1.26-5.39,1.26Z"/>
      <path class="st0" d="M128.73,115.59v-22.2h6.99v22.2h-6.99ZM135.72,103.39l-2.92-2.28c.58-2.59,1.55-4.6,2.92-6.03,1.37-1.43,3.27-2.15,5.71-2.15,1.07,0,2,.16,2.81.48.81.32,1.51.82,2.12,1.48l-4.16,5.25c-.3-.33-.69-.59-1.14-.78-.46-.18-.98-.27-1.55-.27-1.16,0-2.08.36-2.76,1.07-.69.72-1.03,1.79-1.03,3.22Z"/>
      <path class="st0" d="M152.62,115.59v-22.2h6.99v22.2h-6.99ZM159.61,103.39l-2.92-2.28c.58-2.59,1.55-4.6,2.92-6.03,1.37-1.43,3.27-2.15,5.71-2.15,1.07,0,2,.16,2.81.48.81.32,1.51.82,2.12,1.48l-4.16,5.25c-.3-.33-.69-.59-1.14-.78-.46-.18-.98-.27-1.55-.27-1.16,0-2.08.36-2.76,1.07s-1.03,1.79-1.03,3.22Z"/>
      <path class="st0" d="M186.74,116.09c-2.28,0-4.35-.51-6.19-1.53-1.84-1.02-3.3-2.41-4.36-4.18-1.07-1.77-1.6-3.75-1.6-5.94s.53-4.16,1.6-5.89c1.07-1.74,2.51-3.11,4.34-4.13,1.83-1.02,3.9-1.53,6.21-1.53s4.38.5,6.21,1.51c1.83,1,3.27,2.38,4.34,4.13,1.07,1.75,1.6,3.72,1.6,5.91s-.53,4.17-1.6,5.94c-1.07,1.77-2.51,3.16-4.34,4.18-1.83,1.02-3.9,1.53-6.21,1.53ZM186.74,109.74c1,0,1.89-.22,2.65-.66.76-.44,1.35-1.07,1.76-1.87.41-.81.62-1.73.62-2.76s-.21-1.94-.64-2.72c-.43-.78-1.01-1.39-1.76-1.83-.75-.44-1.62-.66-2.63-.66s-1.84.22-2.6.66c-.76.44-1.36,1.06-1.78,1.85-.43.79-.64,1.71-.64,2.74s.21,1.91.64,2.72c.43.81,1.02,1.43,1.78,1.87.76.44,1.63.66,2.6.66Z"/>
    </g>
    <g>
      <path class="st0" d="M337.82,116.6c-2.07,0-3.94-.49-5.59-1.48-1.66-.99-2.98-2.33-3.95-4.02-.98-1.69-1.46-3.57-1.46-5.64s.49-3.94,1.46-5.6c.97-1.66,2.29-2.98,3.95-3.95,1.66-.97,3.52-1.46,5.59-1.46s3.89.49,5.55,1.46c1.66.98,2.98,2.29,3.95,3.95.97,1.66,1.46,3.52,1.46,5.6s-.49,3.99-1.46,5.66c-.98,1.67-2.29,3.01-3.95,4-1.66.99-3.51,1.48-5.55,1.48ZM337.82,114.41c1.61,0,3.07-.4,4.36-1.19,1.29-.79,2.31-1.87,3.06-3.22.75-1.36,1.12-2.89,1.12-4.59s-.37-3.17-1.12-4.48c-.75-1.31-1.77-2.35-3.06-3.13-1.29-.78-2.75-1.16-4.36-1.16s-3.11.39-4.41,1.16c-1.29.78-2.32,1.82-3.08,3.13s-1.14,2.82-1.14,4.52.38,3.23,1.14,4.57c.76,1.34,1.79,2.41,3.08,3.2,1.29.79,2.76,1.19,4.41,1.19Z"/>
      <path class="st0" d="M345.53,121.86c-.09.21-.18.42-.29.62-.75,1.35-1.77,2.43-3.06,3.22-1.29.79-2.75,1.19-4.36,1.19s-3.11-.4-4.41-1.19c-1.29-.79-2.32-1.86-3.08-3.2-.12-.21-.21-.43-.31-.64h-2.52c.21.59.46,1.16.78,1.71.97,1.69,2.29,3.03,3.95,4.02,1.66.99,3.52,1.48,5.59,1.48s3.89-.49,5.55-1.48c1.66-.99,2.98-2.32,3.95-4,.32-.55.57-1.14.79-1.74h-2.58Z"/>
      <path class="st0" d="M207.88,115.59v-21.24h2.33v21.24h-2.33ZM210.21,102.89l-1.14-.41c0-2.71.69-4.82,2.06-6.33,1.37-1.51,3.17-2.26,5.39-2.26,1.03,0,2,.18,2.9.55.9.36,1.73.96,2.49,1.78l-1.55,1.64c-.58-.64-1.2-1.1-1.87-1.37s-1.46-.41-2.37-.41c-1.74,0-3.15.59-4.25,1.76-1.1,1.17-1.64,2.86-1.64,5.05Z"/>
      <path class="st0" d="M239.12,116.04c-2.07,0-3.94-.49-5.59-1.48-1.66-.99-2.98-2.33-3.95-4.02-.98-1.69-1.46-3.57-1.46-5.64s.49-3.94,1.46-5.6c.97-1.66,2.29-2.98,3.95-3.95,1.66-.97,3.52-1.46,5.59-1.46s3.89.49,5.55,1.46c1.66.98,2.98,2.29,3.95,3.95.97,1.66,1.46,3.52,1.46,5.6s-.49,3.99-1.46,5.66c-.98,1.67-2.29,3.01-3.95,4-1.66.99-3.51,1.48-5.55,1.48ZM239.12,113.85c1.61,0,3.07-.4,4.36-1.19,1.29-.79,2.31-1.87,3.06-3.22.75-1.36,1.12-2.89,1.12-4.59s-.37-3.17-1.12-4.48c-.75-1.31-1.77-2.35-3.06-3.13-1.29-.78-2.75-1.16-4.36-1.16s-3.11.39-4.41,1.16c-1.29.78-2.32,1.82-3.08,3.13s-1.14,2.82-1.14,4.52.38,3.23,1.14,4.57c.76,1.34,1.79,2.41,3.08,3.2,1.29.79,2.76,1.19,4.41,1.19Z"/>
      <path class="st0" d="M269.54,116.04c-2.07,0-3.94-.49-5.59-1.48-1.66-.99-2.98-2.33-3.95-4.02-.98-1.69-1.46-3.57-1.46-5.64s.49-3.94,1.46-5.6c.97-1.66,2.29-2.98,3.95-3.95,1.66-.97,3.52-1.46,5.59-1.46s3.89.49,5.55,1.46c1.66.98,2.98,2.29,3.95,3.95.97,1.66,1.46,3.52,1.46,5.6s-.49,3.99-1.46,5.66c-.98,1.67-2.29,3.01-3.95,4-1.66.99-3.51,1.48-5.55,1.48ZM269.54,113.85c1.61,0,3.07-.4,4.36-1.19,1.29-.79,2.31-1.87,3.06-3.22.75-1.36,1.12-2.89,1.12-4.59s-.37-3.17-1.12-4.48c-.75-1.31-1.77-2.35-3.06-3.13-1.29-.78-2.75-1.16-4.36-1.16s-3.11.39-4.41,1.16c-1.29.78-2.32,1.82-3.08,3.13-.76,1.31-1.14,2.82-1.14,4.52s.38,3.23,1.14,4.57c.76,1.34,1.79,2.41,3.08,3.2,1.29.79,2.76,1.19,4.41,1.19Z"/>
      <path class="st0" d="M291.51,115.59v-21.24h2.33v21.24h-2.33ZM293.84,102.89l-1.14-.41c0-2.71.69-4.82,2.06-6.33,1.37-1.51,3.17-2.26,5.39-2.26,1.04,0,2,.18,2.9.55.9.36,1.73.96,2.49,1.78l-1.55,1.64c-.58-.64-1.2-1.1-1.87-1.37s-1.46-.41-2.37-.41c-1.74,0-3.15.59-4.25,1.76-1.1,1.17-1.64,2.86-1.64,5.05Z"/>
      <path class="st0" d="M314.71,115.59v-16.59c0-.87.36-1.69,1-2.28l1.38-1.27v20.14h-2.37Z"/>
      <path class="st0" d="M314.71,93.25v-5.61h2.37v2.06c0,.87-.36,1.69-1,2.28l-1.38,1.27Z"/>
      <path class="st0" d="M278.74,94.44c-.64-.59-1-1.42-1-2.28v-8.63h2.37v12.19s-1.38-1.27-1.38-1.27Z"/>
      <path class="st0" d="M368.15,116.04c-1.71,0-3.23-.4-4.57-1.19-1.34-.79-2.38-1.89-3.13-3.29-.75-1.4-1.12-3.01-1.12-4.84v-12.38h2.33v12.29c0,1.43.27,2.69.8,3.77.53,1.08,1.29,1.93,2.26,2.54.97.61,2.12.91,3.43.91,1.95,0,3.51-.66,4.68-1.99,1.17-1.32,1.76-3.07,1.76-5.23v-12.29h2.33v12.38c0,1.83-.37,3.44-1.12,4.84-.75,1.4-1.78,2.5-3.11,3.29-1.33.79-2.84,1.19-4.55,1.19Z"/>
      <path class="st0" d="M397.6,116.04c-2.1,0-4-.49-5.69-1.46-1.69-.97-3.02-2.3-4-3.97-.97-1.67-1.46-3.56-1.46-5.66s.47-3.98,1.42-5.64c.94-1.66,2.24-2.98,3.9-3.95,1.66-.97,3.51-1.46,5.55-1.46s3.66.43,5.14,1.3c1.48.87,2.63,2.06,3.47,3.58.84,1.52,1.26,3.27,1.26,5.25,0,.18-.01.42-.04.71-.03.29-.08.65-.14,1.07h-18.91v-2.01h17.58l-.78.64c.06-1.67-.21-3.14-.82-4.41-.61-1.26-1.49-2.25-2.65-2.95-1.16-.7-2.54-1.05-4.16-1.05s-3.15.37-4.43,1.12c-1.28.75-2.28,1.77-2.99,3.08-.72,1.31-1.07,2.83-1.07,4.57,0,1.83.37,3.42,1.12,4.77.75,1.36,1.79,2.4,3.13,3.15,1.34.75,2.91,1.12,4.7,1.12,1.37,0,2.64-.25,3.81-.75,1.17-.5,2.15-1.26,2.95-2.26l1.55,1.51c-.97,1.16-2.2,2.06-3.68,2.72-1.48.65-3.07.98-4.77.98Z"/>
      <path class="st0" d="M415.14,114.31l14.16-18.68h2.74l-14.16,18.68h-2.74ZM415.14,115.59v-1.28l1.83-.78h14.84v2.06h-16.67ZM415.87,96.4v-2.06h16.17v1.28l-2.19.78h-13.98Z"/>
    </g>
  </g>
</svg>