<?xml version="1.0" encoding="UTF-8"?>
<svg id="Capa_1" xmlns="http://www.w3.org/2000/svg" version="1.1" viewBox="0 0 566.93 566.93">
  <!-- Generator: Adobe Illustrator 29.8.6, SVG Export Plug-In . SVG Version: 2.1.1 Build 1)  -->
  <defs>
    <style>
      .st0 {
        fill: none;
        stroke: #fff;
        stroke-linecap: round;
        stroke-linejoin: round;
        stroke-width: 7.15px;
      }
    </style>
  </defs>
  <path class="st0" d="M239.99,114.71v53.6c-18.12-.62-35.63,11.37-41.95,28.24-10.56,28.18,8.62,58.28,38.64,60.34,31.14,2.15,64.69-1.55,96.1-.01,57.31,2.8,99.78,55.58,91.36,112.24-6.73,45.26-46.21,81.53-92.26,82.67-1.65.04-3.17.67-5.1,0v-53.15c34.98.7,56.95-37.68,38.26-67.73-7.58-12.2-21.07-19.89-35.39-20.85-31.52-2.1-65.32,1.76-96.98.01-85.95-4.75-122.93-114.84-57.09-171.42,18.03-15.5,40.56-23.66,64.41-23.93Z"/>
  <path class="st0" d="M367.29,232.19c18.03,4.28,33.97,13.6,46.47,26.29,12.8-23.93,14.85-53.96,5.57-79.32-14.01-38.28-51.63-64.27-92.55-64.37v53.52c34.54-.81,54.46,36.16,40.51,63.88Z"/>
  <path class="st0" d="M200.13,333.74c-18.54-4.19-34.18-13.59-46.28-26.14-24.89,44.37-10.39,102.04,33.93,129.74,15.76,9.85,33.6,14.61,52.21,14.87v-53.6c-35.01.77-54.7-36.98-39.86-64.88Z"/>
</svg>