<?xml version="1.0" encoding="UTF-8"?>
<svg id="Capa_1" xmlns="http://www.w3.org/2000/svg" version="1.1" viewBox="0 0 566.93 354.33">
  <!-- Generator: Adobe Illustrator 29.8.6, SVG Export Plug-In . SVG Version: 2.1.1 Build 1)  -->
  <defs>
    <style>
      .st0 {
        fill: #fff;
      }
    </style>
  </defs>
  <g>
    <path class="st0" d="M271.97,84.88v14.18c-.12,0-.24,0-.35,0-4.67,0-9.11,3.12-10.74,7.47-2.79,7.45,2.28,15.41,10.22,15.96,1.95.13,3.94.18,5.94.18,4.93,0,9.97-.29,14.9-.29,1.54,0,3.07.03,4.58.1,15.16.74,26.39,14.7,24.16,29.69-1.78,11.97-12.22,21.56-24.4,21.87-.29,0-.56.08-.85.08-.16,0-.32-.02-.49-.08v-14.06c.08,0,.17,0,.25,0,9.11,0,14.77-10.04,9.87-17.92-2.01-3.23-5.57-5.26-9.36-5.51-1.88-.13-3.79-.17-5.72-.17-4.95,0-10.02.3-14.97.3-1.67,0-3.32-.03-4.96-.12-22.73-1.26-32.51-30.38-15.1-45.34,4.77-4.1,10.73-6.26,17.04-6.33M271.97,82.98s-.01,0-.02,0c-6.86.08-13.17,2.42-18.25,6.79-8.69,7.47-11.76,18.95-8.02,29.98,3.7,10.9,12.99,18.06,24.25,18.68,1.55.09,3.2.13,5.06.13,2.51,0,5.07-.08,7.54-.15,2.45-.07,4.98-.15,7.43-.15,2.09,0,3.92.05,5.59.17,3.22.21,6.24,1.99,7.88,4.63,1.93,3.1,2.03,6.83.27,10-1.75,3.15-4.94,5.03-8.53,5.03h-.21s-.03,0-.04,0c-.49,0-.97.19-1.32.54-.36.36-.57.84-.57,1.35v14.06c0,.8.51,1.52,1.27,1.79.36.13.73.19,1.12.19.29,0,.53-.03.72-.06.06,0,.12-.02.19-.02,13.01-.32,24.28-10.41,26.22-23.48,1.15-7.74-1.06-15.68-6.06-21.78-4.94-6.03-12.19-9.7-19.88-10.08-1.43-.07-2.96-.1-4.67-.1-2.49,0-5.04.07-7.5.14-2.44.07-4.96.14-7.39.14-2.18,0-4.08-.06-5.81-.18-3.17-.22-5.96-1.86-7.65-4.5-1.71-2.66-2.05-5.91-.92-8.91,1.36-3.62,5.13-6.25,8.97-6.25.1,0,.19,0,.29,0,.02,0,.04,0,.06,0,.49,0,.96-.19,1.31-.53.37-.36.58-.85.58-1.36v-14.18c0-.51-.2-.99-.56-1.35-.35-.35-.83-.55-1.33-.55h0Z"/>
    <path class="st0" d="M294.92,84.9c10.82.03,20.77,6.9,24.48,17.02,2.45,6.71,1.91,14.65-1.47,20.98-3.3-3.35-7.52-5.82-12.29-6.95,3.65-7.25-1.47-16.9-10.42-16.9-.1,0-.2,0-.29,0v-14.16M294.92,83c-.5,0-.98.2-1.34.55-.36.35-.56.84-.56,1.34v14.16c0,.51.21,1,.57,1.35.35.35.83.54,1.32.54.01,0,.03,0,.04,0,.08,0,.17,0,.25,0,3.4,0,6.38,1.67,8.18,4.59,1.82,2.95,2.03,6.62.55,9.57-.26.52-.27,1.12-.03,1.65s.72.91,1.28,1.04c4.3,1.02,8.24,3.25,11.38,6.44.36.36.84.56,1.35.56.09,0,.18,0,.27-.02.6-.09,1.11-.45,1.4-.98,3.65-6.83,4.24-15.25,1.58-22.52-3.99-10.9-14.54-18.24-26.25-18.27h0Z"/>
    <path class="st0" d="M249.18,135.9c3.2,3.32,7.34,5.8,12.24,6.91-3.89,7.31,1.18,17.16,10.27,17.16.09,0,.18,0,.28,0v14.18c-4.92-.07-9.64-1.33-13.81-3.93-11.72-7.33-15.56-22.58-8.98-34.32M249.18,134c-.08,0-.16,0-.24.02-.59.08-1.12.43-1.41.95-3.44,6.12-4.34,13.3-2.56,20.21,1.79,6.94,6.12,12.85,12.18,16.64,4.36,2.72,9.34,4.15,14.79,4.22,0,0,.02,0,.03,0,.5,0,.97-.2,1.33-.54.36-.36.56-.84.56-1.35v-14.18c0-.51-.21-1-.57-1.35-.35-.35-.83-.54-1.32-.54-.01,0-.03,0-.04,0-.08,0-.16,0-.24,0-3.45,0-6.44-1.7-8.22-4.66-1.81-3.02-1.96-6.74-.37-9.72.28-.52.3-1.14.05-1.68-.25-.54-.73-.93-1.3-1.06-4.3-.97-8.21-3.18-11.3-6.38-.36-.37-.85-.58-1.36-.58h0Z"/>
  </g>
  <g>
    <path class="st0" d="M385.14,254.77c-2.44,0-4.63-.58-6.59-1.75-1.95-1.16-3.5-2.74-4.65-4.73-1.15-1.99-1.72-4.2-1.72-6.64s.57-4.63,1.72-6.59c1.15-1.95,2.7-3.5,4.65-4.65,1.95-1.15,4.15-1.72,6.59-1.72s4.58.57,6.53,1.72c1.95,1.15,3.5,2.7,4.65,4.65,1.15,1.95,1.72,4.15,1.72,6.59s-.57,4.7-1.72,6.67c-1.15,1.97-2.7,3.54-4.65,4.7-1.95,1.17-4.13,1.75-6.53,1.75ZM385.14,252.19c1.9,0,3.61-.47,5.14-1.4,1.52-.93,2.72-2.2,3.6-3.79.88-1.6,1.32-3.4,1.32-5.4s-.44-3.73-1.32-5.27c-.88-1.54-2.08-2.77-3.6-3.68-1.52-.91-3.24-1.37-5.14-1.37s-3.67.46-5.19,1.37c-1.52.91-2.73,2.14-3.63,3.68s-1.34,3.32-1.34,5.32.45,3.8,1.34,5.38c.9,1.58,2.11,2.83,3.63,3.76,1.52.93,3.25,1.4,5.19,1.4Z"/>
    <path class="st0" d="M394.22,260.96c-.11.24-.21.49-.34.73-.88,1.59-2.08,2.86-3.6,3.79-1.52.93-3.24,1.4-5.14,1.4s-3.67-.47-5.19-1.4c-1.52-.93-2.73-2.19-3.63-3.76-.14-.24-.25-.5-.36-.75h-2.97c.25.69.54,1.37.91,2.02,1.15,1.99,2.7,3.57,4.65,4.73,1.95,1.17,4.15,1.75,6.59,1.75s4.58-.58,6.53-1.75c1.95-1.16,3.5-2.73,4.65-4.7.38-.65.67-1.34.92-2.04h-3.03Z"/>
    <path class="st0" d="M85.22,254.17c-2.69,0-5.13-.59-7.31-1.77-2.19-1.18-3.91-2.81-5.16-4.89-1.25-2.08-1.88-4.41-1.88-6.99s.64-4.95,1.91-7.02c1.27-2.06,3-3.68,5.19-4.87,2.19-1.18,4.64-1.77,7.37-1.77,2.04,0,3.92.35,5.62,1.05,1.7.7,3.22,1.75,4.54,3.15l-5.27,5.27c-.61-.68-1.32-1.18-2.12-1.5-.81-.32-1.73-.48-2.77-.48-1.18,0-2.23.26-3.15.78-.91.52-1.63,1.24-2.15,2.15-.52.91-.78,1.98-.78,3.2s.26,2.29.78,3.23c.52.93,1.25,1.67,2.18,2.21.93.54,1.97.81,3.12.81,1.08,0,2.03-.19,2.88-.56.84-.38,1.57-.91,2.18-1.59l5.22,5.27c-1.36,1.43-2.9,2.52-4.62,3.25-1.72.73-3.64,1.1-5.75,1.1Z"/>
    <path class="st0" d="M116.25,254.17c-2.4,0-4.53-.49-6.37-1.48-1.85-.99-3.29-2.35-4.33-4.09-1.04-1.74-1.56-3.74-1.56-6v-15.16h8.23v15.05c0,.9.15,1.67.46,2.31.3.64.76,1.15,1.37,1.5.61.36,1.34.54,2.2.54,1.22,0,2.19-.38,2.9-1.16.72-.77,1.08-1.84,1.08-3.2v-15.05h8.23v15.11c0,2.29-.52,4.31-1.56,6.05-1.04,1.74-2.47,3.1-4.3,4.09-1.83.98-3.94,1.48-6.34,1.48Z"/>
    <path class="st0" d="M138.99,253.58v-26.13h8.23v26.13h-8.23ZM147.22,239.22l-3.44-2.69c.68-3.05,1.83-5.41,3.44-7.1,1.61-1.68,3.85-2.53,6.72-2.53,1.25,0,2.36.19,3.31.56.95.38,1.78.96,2.5,1.75l-4.89,6.18c-.36-.39-.81-.7-1.34-.91-.54-.22-1.15-.32-1.83-.32-1.36,0-2.45.42-3.25,1.26-.81.84-1.21,2.11-1.21,3.79Z"/>
    <path class="st0" d="M167.11,253.58v-26.13h8.23v26.13h-8.23ZM175.34,239.22l-3.44-2.69c.68-3.05,1.83-5.41,3.44-7.1,1.61-1.68,3.85-2.53,6.72-2.53,1.25,0,2.36.19,3.31.56.95.38,1.78.96,2.5,1.75l-4.89,6.18c-.36-.39-.81-.7-1.34-.91-.54-.22-1.15-.32-1.83-.32-1.36,0-2.45.42-3.25,1.26s-1.21,2.11-1.21,3.79Z"/>
    <path class="st0" d="M207.27,254.17c-2.69,0-5.12-.6-7.29-1.8-2.17-1.2-3.88-2.84-5.14-4.92-1.25-2.08-1.88-4.41-1.88-6.99s.63-4.89,1.88-6.94c1.25-2.04,2.96-3.66,5.11-4.87,2.15-1.2,4.59-1.8,7.31-1.8s5.16.59,7.31,1.77c2.15,1.18,3.85,2.8,5.11,4.87,1.25,2.06,1.88,4.38,1.88,6.96s-.63,4.91-1.88,6.99c-1.26,2.08-2.96,3.72-5.11,4.92-2.15,1.2-4.59,1.8-7.31,1.8ZM207.27,246.69c1.18,0,2.22-.26,3.12-.78.9-.52,1.59-1.25,2.07-2.2.48-.95.73-2.03.73-3.25s-.25-2.29-.75-3.2c-.5-.91-1.19-1.63-2.07-2.15-.88-.52-1.91-.78-3.09-.78s-2.17.26-3.06.78c-.9.52-1.6,1.25-2.1,2.18-.5.93-.75,2.01-.75,3.23s.25,2.25.75,3.2c.5.95,1.2,1.69,2.1,2.2.9.52,1.92.78,3.06.78Z"/>
    <path class="st0" d="M232.17,253.58v-25h2.74v25h-2.74ZM234.91,238.63l-1.34-.48c0-3.19.81-5.67,2.42-7.45,1.61-1.77,3.73-2.66,6.34-2.66,1.22,0,2.36.22,3.41.65,1.06.43,2.03,1.13,2.93,2.1l-1.83,1.94c-.68-.75-1.42-1.29-2.2-1.61-.79-.32-1.72-.48-2.8-.48-2.04,0-3.71.69-5,2.07-1.29,1.38-1.94,3.36-1.94,5.94Z"/>
    <path class="st0" d="M268.95,254.11c-2.44,0-4.63-.58-6.59-1.75-1.95-1.16-3.5-2.74-4.65-4.73-1.15-1.99-1.72-4.2-1.72-6.64s.57-4.63,1.72-6.59c1.15-1.95,2.7-3.5,4.65-4.65,1.95-1.15,4.15-1.72,6.59-1.72s4.58.57,6.53,1.72c1.95,1.15,3.5,2.7,4.65,4.65,1.15,1.95,1.72,4.15,1.72,6.59s-.57,4.7-1.72,6.67c-1.15,1.97-2.7,3.54-4.65,4.7-1.95,1.17-4.13,1.75-6.53,1.75ZM268.95,251.53c1.9,0,3.61-.47,5.14-1.4,1.52-.93,2.72-2.2,3.6-3.79.88-1.6,1.32-3.4,1.32-5.4s-.44-3.73-1.32-5.27c-.88-1.54-2.08-2.77-3.6-3.68-1.52-.91-3.24-1.37-5.14-1.37s-3.67.46-5.19,1.37c-1.52.91-2.73,2.14-3.63,3.68s-1.34,3.32-1.34,5.32.45,3.8,1.34,5.38c.9,1.58,2.11,2.83,3.63,3.76,1.52.93,3.25,1.4,5.19,1.4Z"/>
    <path class="st0" d="M304.76,254.11c-2.44,0-4.63-.58-6.59-1.75-1.95-1.16-3.5-2.74-4.65-4.73-1.15-1.99-1.72-4.2-1.72-6.64s.57-4.63,1.72-6.59c1.15-1.95,2.7-3.5,4.65-4.65,1.95-1.15,4.15-1.72,6.59-1.72s4.58.57,6.53,1.72c1.95,1.15,3.5,2.7,4.65,4.65,1.15,1.95,1.72,4.15,1.72,6.59s-.57,4.7-1.72,6.67c-1.15,1.97-2.7,3.54-4.65,4.7-1.95,1.17-4.13,1.75-6.53,1.75ZM304.76,251.53c1.9,0,3.61-.47,5.14-1.4,1.52-.93,2.72-2.2,3.6-3.79.88-1.6,1.32-3.4,1.32-5.4s-.44-3.73-1.32-5.27c-.88-1.54-2.08-2.77-3.6-3.68-1.52-.91-3.24-1.37-5.14-1.37s-3.67.46-5.19,1.37c-1.52.91-2.73,2.14-3.63,3.68s-1.34,3.32-1.34,5.32.45,3.8,1.34,5.38c.9,1.58,2.11,2.83,3.63,3.76,1.52.93,3.25,1.4,5.19,1.4Z"/>
    <path class="st0" d="M330.62,253.58v-25h2.74v25h-2.74ZM333.36,238.63l-1.34-.48c0-3.19.81-5.67,2.42-7.45,1.61-1.77,3.73-2.66,6.34-2.66,1.22,0,2.36.22,3.41.65,1.06.43,2.03,1.13,2.93,2.1l-1.83,1.94c-.68-.75-1.42-1.29-2.21-1.61-.79-.32-1.72-.48-2.8-.48-2.04,0-3.71.69-5,2.07-1.29,1.38-1.94,3.36-1.94,5.94Z"/>
    <path class="st0" d="M357.93,253.58v-19.53c0-1.02.43-1.99,1.18-2.69l1.62-1.49v23.71h-2.8Z"/>
    <path class="st0" d="M357.93,227.28v-6.61h2.8v2.43c0,1.02-.43,1.99-1.18,2.69l-1.62,1.49Z"/>
    <path class="st0" d="M315.58,228.68c-.75-.69-1.18-1.67-1.18-2.69v-10.16h2.8v14.35s-1.62-1.49-1.62-1.49Z"/>
    <path class="st0" d="M420.84,254.11c-2.01,0-3.8-.47-5.38-1.4-1.58-.93-2.8-2.22-3.68-3.87-.88-1.65-1.32-3.55-1.32-5.7v-14.57h2.74v14.46c0,1.69.31,3.16.94,4.44.63,1.27,1.51,2.27,2.66,2.98,1.15.72,2.49,1.08,4.03,1.08,2.29,0,4.13-.78,5.51-2.34,1.38-1.56,2.07-3.61,2.07-6.16v-14.46h2.74v14.57c0,2.15-.44,4.05-1.32,5.7-.88,1.65-2.1,2.94-3.66,3.87-1.56.93-3.34,1.4-5.35,1.4Z"/>
    <path class="st0" d="M455.52,254.11c-2.47,0-4.71-.57-6.69-1.72-1.99-1.15-3.56-2.71-4.71-4.68-1.15-1.97-1.72-4.19-1.72-6.67s.56-4.69,1.67-6.64c1.11-1.95,2.64-3.5,4.6-4.65,1.95-1.15,4.13-1.72,6.53-1.72s4.31.51,6.05,1.53c1.74,1.02,3.1,2.43,4.09,4.22.99,1.79,1.48,3.85,1.48,6.18,0,.22-.02.49-.05.83-.04.34-.09.76-.16,1.26h-22.26v-2.37h20.7l-.91.75c.07-1.97-.25-3.7-.97-5.19s-1.76-2.64-3.12-3.47c-1.36-.82-2.99-1.24-4.89-1.24s-3.71.44-5.22,1.32c-1.5.88-2.68,2.09-3.52,3.63-.84,1.54-1.26,3.33-1.26,5.38,0,2.15.44,4.02,1.32,5.62.88,1.6,2.1,2.83,3.68,3.71,1.58.88,3.42,1.32,5.54,1.32,1.61,0,3.11-.3,4.49-.89,1.38-.59,2.54-1.48,3.47-2.66l1.83,1.77c-1.15,1.36-2.59,2.43-4.33,3.2-1.74.77-3.61,1.16-5.62,1.16Z"/>
    <path class="st0" d="M476.17,252.07l16.67-21.99h3.23l-16.67,21.99h-3.23ZM476.17,253.58v-1.5l2.15-.91h17.47v2.42h-19.63ZM477.03,230.99v-2.42h19.03v1.51l-2.58.91h-16.45Z"/>
  </g>
</svg>