<?xml version="1.0" encoding="UTF-8"?>
<svg id="Capa_1" xmlns="http://www.w3.org/2000/svg" version="1.1" viewBox="0 0 566.93 283.46">
  <!-- Generator: Adobe Illustrator 29.8.6, SVG Export Plug-In . SVG Version: 2.1.1 Build 1)  -->
  <defs>
    <style>
      .st0 {
        fill: #fff;
      }
    </style>
  </defs>
  <g>
    <path class="st0" d="M101.67,83.59v16.8c-.14,0-.28,0-.42,0-5.53,0-10.8,3.7-12.73,8.86-3.31,8.84,2.7,18.27,12.11,18.92,2.31.16,4.67.22,7.05.22,5.84,0,11.82-.34,17.66-.34,1.82,0,3.64.03,5.43.12,17.97.88,31.29,17.43,28.64,35.19-2.11,14.19-14.49,25.56-28.93,25.92-.34,0-.66.1-1.01.1-.18,0-.38-.02-.59-.1v-16.66c.1,0,.2,0,.3,0,10.79,0,17.51-11.9,11.7-21.24-2.38-3.82-6.6-6.24-11.1-6.54-2.23-.15-4.49-.2-6.78-.2-5.87,0-11.88.35-17.75.35-1.98,0-3.94-.04-5.88-.15-26.95-1.49-38.54-36.01-17.9-53.74,5.65-4.86,12.72-7.42,20.2-7.5M101.67,81.35s-.02,0-.03,0c-8.13.09-15.61,2.87-21.63,8.04-10.3,8.85-13.94,22.47-9.51,35.54,4.39,12.92,15.4,21.41,28.75,22.15,1.83.1,3.8.15,6,.15,2.97,0,6.01-.09,8.94-.18,2.9-.09,5.91-.18,8.81-.18,2.47,0,4.64.06,6.63.2,3.82.25,7.4,2.36,9.34,5.48,2.28,3.67,2.4,8.1.32,11.85-2.08,3.73-5.86,5.96-10.12,5.96h-.25s-.03,0-.04,0c-.59,0-1.15.23-1.57.64-.43.42-.67,1-.67,1.6v16.66c0,.95.6,1.8,1.5,2.12.43.15.86.22,1.33.22.34,0,.63-.04.85-.07.07-.01.15-.02.22-.03,15.42-.38,28.78-12.35,31.09-27.83,1.36-9.18-1.26-18.59-7.19-25.82-5.86-7.14-14.45-11.5-23.56-11.94-1.7-.08-3.51-.12-5.53-.12-2.95,0-5.97.09-8.9.17-2.89.08-5.88.17-8.76.17-2.58,0-4.83-.07-6.89-.21-3.75-.26-7.06-2.2-9.07-5.33-2.03-3.15-2.43-7-1.09-10.56,1.61-4.29,6.08-7.4,10.63-7.4.11,0,.23,0,.34,0,.03,0,.05,0,.08,0,.58,0,1.14-.23,1.56-.63.44-.42.68-1,.68-1.61v-16.8c0-.6-.24-1.17-.67-1.59-.42-.42-.99-.65-1.58-.65h0Z"/>
    <path class="st0" d="M128.88,83.61c12.83.03,24.63,8.18,29.02,20.18,2.91,7.95,2.27,17.37-1.75,24.87-3.92-3.98-8.92-6.9-14.57-8.24,4.33-8.6-1.74-20.03-12.35-20.03-.12,0-.23,0-.35,0v-16.78M128.88,81.37c-.59,0-1.16.24-1.58.65-.42.42-.66.99-.66,1.59v16.78c0,.6.24,1.18.68,1.6.42.41.98.64,1.57.64.02,0,.03,0,.05,0,.1,0,.2,0,.3,0,4.03,0,7.57,1.98,9.7,5.44,2.16,3.5,2.41,7.85.65,11.34-.31.61-.32,1.33-.03,1.95.29.62.85,1.08,1.52,1.24,5.1,1.21,9.76,3.85,13.49,7.63.42.43,1,.67,1.6.67.11,0,.21,0,.32-.02.71-.1,1.32-.53,1.66-1.16,4.33-8.09,5.03-18.07,1.88-26.7-4.73-12.92-17.23-21.62-31.12-21.65h0Z"/>
    <path class="st0" d="M74.67,144.07c3.8,3.93,8.7,6.88,14.51,8.19-4.61,8.66,1.4,20.35,12.17,20.35.11,0,.22,0,.33,0v16.8c-5.83-.08-11.43-1.58-16.37-4.66-13.9-8.68-18.44-26.77-10.64-40.68M74.67,141.83c-.1,0-.19,0-.29.02-.7.09-1.32.51-1.67,1.13-4.07,7.26-5.15,15.77-3.03,23.96,2.13,8.23,7.25,15.23,14.44,19.72,5.17,3.23,11.07,4.91,17.53,5,.01,0,.02,0,.03,0,.59,0,1.15-.23,1.57-.65.43-.42.67-1,.67-1.6v-16.8c0-.6-.24-1.18-.67-1.6-.42-.41-.98-.64-1.57-.64-.02,0-.03,0-.05,0-.09,0-.19,0-.28,0-4.08,0-7.64-2.01-9.75-5.53-2.15-3.58-2.32-7.99-.44-11.52.33-.62.35-1.35.06-1.99-.29-.64-.86-1.1-1.54-1.25-5.1-1.15-9.73-3.77-13.39-7.56-.43-.44-1.01-.69-1.61-.69h0Z"/>
  </g>
  <g>
    <path class="st0" d="M200.26,125.84c-3.19,0-6.08-.7-8.67-2.1-2.59-1.4-4.63-3.34-6.12-5.8-1.49-2.46-2.23-5.23-2.23-8.29s.75-5.87,2.26-8.32c1.51-2.44,3.56-4.37,6.15-5.77,2.59-1.4,5.5-2.1,8.73-2.1,2.42,0,4.64.41,6.66,1.24,2.02.83,3.81,2.07,5.39,3.73l-6.25,6.25c-.72-.81-1.56-1.4-2.52-1.78-.96-.38-2.05-.57-3.28-.57-1.4,0-2.65.31-3.73.93-1.08.62-1.93,1.46-2.55,2.55-.62,1.08-.92,2.35-.92,3.79s.31,2.72.92,3.82c.62,1.11,1.48,1.98,2.58,2.61,1.1.64,2.34.96,3.7.96,1.27,0,2.41-.22,3.41-.67,1-.45,1.86-1.07,2.58-1.88l6.18,6.25c-1.62,1.7-3.44,2.99-5.48,3.86-2.04.87-4.31,1.31-6.82,1.31Z"/>
    <path class="st0" d="M237.03,125.84c-2.85,0-5.36-.59-7.55-1.75-2.19-1.17-3.9-2.78-5.13-4.84-1.23-2.06-1.85-4.43-1.85-7.11v-17.97h9.75v17.85c0,1.06.18,1.98.54,2.74.36.76.9,1.36,1.63,1.78.72.43,1.59.64,2.61.64,1.44,0,2.59-.46,3.44-1.37.85-.91,1.27-2.18,1.27-3.79v-17.85h9.75v17.91c0,2.72-.62,5.11-1.85,7.17-1.23,2.06-2.93,3.68-5.1,4.84-2.17,1.17-4.67,1.75-7.52,1.75Z"/>
    <path class="st0" d="M263.99,125.14v-30.98h9.75v30.98h-9.75ZM273.75,108.12l-4.08-3.19c.81-3.61,2.17-6.42,4.08-8.41,1.91-2,4.57-2.99,7.97-2.99,1.49,0,2.79.22,3.92.67,1.13.45,2.11,1.14,2.96,2.07l-5.8,7.33c-.43-.47-.96-.83-1.59-1.08-.64-.26-1.36-.38-2.17-.38-1.62,0-2.9.5-3.86,1.5s-1.43,2.5-1.43,4.49Z"/>
    <path class="st0" d="M297.33,125.14v-30.98h9.75v30.98h-9.75ZM307.08,108.12l-4.08-3.19c.81-3.61,2.17-6.42,4.08-8.41,1.91-2,4.57-2.99,7.97-2.99,1.49,0,2.79.22,3.92.67,1.13.45,2.11,1.14,2.96,2.07l-5.8,7.33c-.43-.47-.96-.83-1.59-1.08-.64-.26-1.36-.38-2.17-.38-1.62,0-2.9.5-3.86,1.5s-1.43,2.5-1.43,4.49Z"/>
    <path class="st0" d="M344.94,125.84c-3.19,0-6.07-.71-8.64-2.14-2.57-1.42-4.6-3.37-6.09-5.83-1.49-2.46-2.23-5.23-2.23-8.29s.74-5.8,2.23-8.22c1.49-2.42,3.51-4.34,6.06-5.77,2.55-1.42,5.44-2.13,8.67-2.13s6.12.7,8.67,2.1c2.55,1.4,4.57,3.32,6.06,5.77,1.49,2.44,2.23,5.19,2.23,8.25s-.74,5.82-2.23,8.29c-1.49,2.46-3.51,4.41-6.06,5.83-2.55,1.42-5.44,2.14-8.67,2.14ZM344.94,116.98c1.4,0,2.63-.31,3.7-.92,1.06-.62,1.88-1.49,2.45-2.61.57-1.13.86-2.41.86-3.86s-.3-2.71-.89-3.79c-.6-1.08-1.41-1.93-2.45-2.55-1.04-.62-2.26-.93-3.67-.93s-2.57.31-3.63.93c-1.06.62-1.89,1.48-2.49,2.58-.6,1.1-.89,2.38-.89,3.82s.3,2.67.89,3.79c.59,1.13,1.42,2,2.49,2.61,1.06.62,2.27.92,3.63.92Z"/>
  </g>
  <g>
    <path class="st0" d="M364.57,182.47c-2.89,0-5.49-.69-7.81-2.07-2.32-1.38-4.15-3.25-5.51-5.61-1.36-2.36-2.04-4.98-2.04-7.87s.68-5.49,2.04-7.81c1.36-2.32,3.2-4.15,5.51-5.51,2.32-1.36,4.92-2.04,7.81-2.04s5.43.68,7.74,2.04c2.32,1.36,4.15,3.2,5.51,5.51,1.36,2.32,2.04,4.92,2.04,7.81s-.68,5.57-2.04,7.9c-1.36,2.34-3.2,4.2-5.51,5.58-2.32,1.38-4.9,2.07-7.74,2.07ZM364.57,179.41c2.25,0,4.28-.55,6.09-1.66,1.81-1.1,3.23-2.6,4.27-4.49,1.04-1.89,1.56-4.03,1.56-6.41s-.52-4.42-1.56-6.25c-1.04-1.83-2.46-3.28-4.27-4.37-1.81-1.08-3.84-1.62-6.09-1.62s-4.35.54-6.15,1.62c-1.81,1.08-3.24,2.54-4.3,4.37s-1.59,3.93-1.59,6.31.53,4.5,1.59,6.37c1.06,1.87,2.5,3.36,4.3,4.46,1.81,1.1,3.86,1.66,6.15,1.66Z"/>
    <path class="st0" d="M375.33,189.8c-.13.29-.25.58-.4.86-1.04,1.89-2.46,3.39-4.27,4.49-1.81,1.1-3.84,1.66-6.09,1.66s-4.35-.55-6.15-1.66c-1.81-1.1-3.24-2.59-4.3-4.46-.16-.29-.29-.59-.43-.89h-3.52c.3.82.64,1.63,1.08,2.39,1.36,2.36,3.2,4.23,5.51,5.61,2.32,1.38,4.92,2.07,7.81,2.07s5.43-.69,7.74-2.07c2.32-1.38,4.15-3.24,5.51-5.58.45-.77.8-1.59,1.1-2.42h-3.59Z"/>
    <path class="st0" d="M183.24,181.05v-29.64h3.25v29.64h-3.25ZM186.49,163.33l-1.59-.57c0-3.78.96-6.73,2.87-8.83,1.91-2.1,4.42-3.16,7.52-3.16,1.44,0,2.79.26,4.05.77,1.25.51,2.41,1.34,3.47,2.49l-2.17,2.29c-.81-.89-1.68-1.53-2.61-1.91s-2.04-.57-3.31-.57c-2.42,0-4.4.82-5.93,2.45-1.53,1.64-2.29,3.98-2.29,7.04Z"/>
    <path class="st0" d="M226.84,181.69c-2.89,0-5.49-.69-7.81-2.07-2.32-1.38-4.15-3.25-5.51-5.61-1.36-2.36-2.04-4.98-2.04-7.87s.68-5.49,2.04-7.81c1.36-2.32,3.2-4.15,5.51-5.51,2.32-1.36,4.92-2.04,7.81-2.04s5.43.68,7.74,2.04c2.32,1.36,4.15,3.2,5.51,5.51,1.36,2.32,2.04,4.92,2.04,7.81s-.68,5.57-2.04,7.9c-1.36,2.34-3.2,4.2-5.51,5.58-2.32,1.38-4.9,2.07-7.74,2.07ZM226.84,178.63c2.25,0,4.28-.55,6.09-1.66,1.81-1.1,3.23-2.6,4.27-4.49,1.04-1.89,1.56-4.03,1.56-6.41s-.52-4.42-1.56-6.25c-1.04-1.83-2.46-3.28-4.27-4.37-1.81-1.08-3.84-1.62-6.09-1.62s-4.35.54-6.15,1.62c-1.81,1.08-3.24,2.54-4.3,4.37s-1.59,3.93-1.59,6.31.53,4.5,1.59,6.37c1.06,1.87,2.5,3.36,4.3,4.46,1.81,1.1,3.86,1.66,6.15,1.66Z"/>
    <path class="st0" d="M269.29,181.69c-2.89,0-5.49-.69-7.81-2.07-2.32-1.38-4.15-3.25-5.51-5.61-1.36-2.36-2.04-4.98-2.04-7.87s.68-5.49,2.04-7.81c1.36-2.32,3.2-4.15,5.51-5.51,2.32-1.36,4.92-2.04,7.81-2.04s5.43.68,7.74,2.04c2.32,1.36,4.15,3.2,5.51,5.51,1.36,2.32,2.04,4.92,2.04,7.81s-.68,5.57-2.04,7.9c-1.36,2.34-3.2,4.2-5.51,5.58-2.32,1.38-4.9,2.07-7.74,2.07ZM269.29,178.63c2.25,0,4.28-.55,6.09-1.66,1.81-1.1,3.23-2.6,4.27-4.49,1.04-1.89,1.56-4.03,1.56-6.41s-.52-4.42-1.56-6.25c-1.04-1.83-2.46-3.28-4.27-4.37-1.81-1.08-3.84-1.62-6.09-1.62s-4.35.54-6.15,1.62c-1.81,1.08-3.24,2.54-4.3,4.37-1.06,1.83-1.59,3.93-1.59,6.31s.53,4.5,1.59,6.37c1.06,1.87,2.5,3.36,4.3,4.46,1.81,1.1,3.86,1.66,6.15,1.66Z"/>
    <path class="st0" d="M299.94,181.05v-29.64h3.25v29.64h-3.25ZM303.19,163.33l-1.59-.57c0-3.78.96-6.73,2.87-8.83,1.91-2.1,4.42-3.16,7.52-3.16,1.45,0,2.79.26,4.05.77,1.25.51,2.41,1.34,3.47,2.49l-2.17,2.29c-.81-.89-1.68-1.53-2.61-1.91-.93-.38-2.04-.57-3.31-.57-2.42,0-4.4.82-5.93,2.45-1.53,1.64-2.29,3.98-2.29,7.04Z"/>
    <path class="st0" d="M332.32,181.05v-23.15c0-1.21.51-2.36,1.4-3.19l1.92-1.77v28.11h-3.31Z"/>
    <path class="st0" d="M332.32,149.88v-7.83h3.31v2.88c0,1.21-.51,2.36-1.4,3.19l-1.92,1.77Z"/>
    <path class="st0" d="M282.12,151.54c-.89-.82-1.4-1.98-1.4-3.19v-12.05h3.31v17.01s-1.92-1.77-1.92-1.77Z"/>
    <path class="st0" d="M406.89,181.69c-2.38,0-4.5-.55-6.37-1.66-1.87-1.1-3.32-2.63-4.37-4.59-1.04-1.95-1.56-4.21-1.56-6.76v-17.27h3.25v17.15c0,2,.37,3.75,1.12,5.26.74,1.51,1.79,2.69,3.15,3.54s2.95,1.27,4.78,1.27c2.72,0,4.9-.92,6.53-2.77,1.63-1.85,2.45-4.28,2.45-7.3v-17.15h3.25v17.27c0,2.55-.52,4.8-1.56,6.76-1.04,1.95-2.49,3.48-4.33,4.59-1.85,1.1-3.96,1.66-6.34,1.66Z"/>
    <path class="st0" d="M448.01,181.69c-2.93,0-5.58-.68-7.94-2.04-2.36-1.36-4.22-3.21-5.58-5.55-1.36-2.34-2.04-4.97-2.04-7.9s.66-5.56,1.98-7.87c1.32-2.32,3.13-4.15,5.45-5.51,2.32-1.36,4.9-2.04,7.74-2.04s5.11.61,7.17,1.82c2.06,1.21,3.67,2.88,4.84,5,1.17,2.13,1.75,4.57,1.75,7.33,0,.26-.02.59-.06.99-.04.4-.11.9-.19,1.5h-26.39v-2.8h24.54l-1.08.89c.08-2.34-.3-4.39-1.15-6.15-.85-1.76-2.08-3.13-3.7-4.11-1.62-.98-3.55-1.47-5.8-1.47s-4.4.52-6.18,1.56c-1.78,1.04-3.18,2.48-4.17,4.3-1,1.83-1.5,3.95-1.5,6.37,0,2.55.52,4.77,1.56,6.66,1.04,1.89,2.49,3.36,4.37,4.4,1.87,1.04,4.06,1.56,6.57,1.56,1.91,0,3.69-.35,5.32-1.05,1.63-.7,3.01-1.75,4.11-3.15l2.17,2.1c-1.36,1.62-3.07,2.88-5.13,3.79-2.06.91-4.28,1.37-6.66,1.37Z"/>
    <path class="st0" d="M472.48,179.27l19.76-26.07h3.82l-19.76,26.07h-3.82ZM472.48,181.05v-1.78l2.55-1.08h20.71v2.87h-23.26ZM473.5,154.28v-2.87h22.56v1.79l-3.06,1.08h-19.5Z"/>
  </g>
</svg>